<svg xmlns="http://www.w3.org/2000/svg" viewBox="0 0 32 32" width="26" height="26" style="fill: rgba(153, 153, 153, 1);border-color: rgba(0,0,0,0);border-width: bpx;border-style: undefined" filter="none"><path d="M21.446 17.929l5.464-5.304-7.536-1.107-3.375-6.821-3.375 6.821-7.536 1.107 5.464 5.304-1.304 7.518 6.75-3.554 6.732 3.554zM30.857 11.554q0 0.393-0.464 0.857l-6.482 6.321 1.536 8.929q0.018 0.125 0.018 0.357 0 0.893-0.732 0.893-0.339 0-0.714-0.214l-8.018-4.214-8.018 4.214q-0.393 0.214-0.714 0.214-0.375 0-0.563-0.259t-0.188-0.634q0-0.107 0.036-0.357l1.536-8.929-6.5-6.321q-0.446-0.482-0.446-0.857 0-0.661 1-0.821l8.964-1.304 4.018-8.125q0.339-0.732 0.875-0.732t0.875 0.732l4.018 8.125 8.964 1.304q1 0.161 1 0.821z"></path></svg>